<svg width="73" height="72" viewBox="0 0 73 72" fill="none" xmlns="http://www.w3.org/2000/svg">
<path d="M3.67 18.06L1.87 20.27L5.69 24.09L7.9 22.3C8.55 22.66 9.24 22.94 9.95 23.15L10.24 25.98H15.65L15.95 23.15C16.66 22.94 17.35 22.66 18 22.3L20.21 24.1L24.03 20.28L22.23 18.07C22.59 17.42 22.87 16.73 23.08 16.02L25.91 15.72V10.31L23.08 10.02C22.87 9.31004 22.59 8.62004 22.23 7.97004L24.02 5.76004L20.2 1.94004L18.02 3.72004C17.37 3.36004 16.68 3.08004 15.97 2.87004L15.67 0.0400391H10.26L9.97 2.87004C9.26 3.08004 8.57 3.36004 7.92 3.72004L5.71 1.93004L1.89 5.75004L3.68 7.96004C3.32 8.61004 3.04 9.30004 2.83 10.01L0 10.3V15.71L2.83 16.01C3.03 16.72 3.32 17.41 3.67 18.06ZM1.99 12.11L4.44 11.86L4.6 11.16C4.82 10.18 5.2 9.26004 5.74 8.41004L6.13 7.80004L4.58 5.89004L5.85 4.62004L7.76 6.17004L8.37 5.78004C9.21 5.24004 10.14 4.86004 11.12 4.64004L11.82 4.48004L12.07 2.03004H13.87L14.13 4.48004L14.83 4.64004C15.81 4.86004 16.73 5.24004 17.58 5.78004L18.19 6.17004L20.1 4.62004L21.37 5.89004L19.82 7.80004L20.21 8.41004C20.75 9.25004 21.13 10.18 21.35 11.16L21.51 11.86L23.96 12.11V13.91L21.51 14.17L21.35 14.87C21.13 15.85 20.75 16.77 20.21 17.62L19.82 18.23L21.37 20.14L20.1 21.41L18.19 19.86L17.58 20.25C16.74 20.79 15.81 21.17 14.83 21.39L14.13 21.55L13.87 24H12.07L11.82 21.55L11.12 21.39C10.14 21.17 9.22 20.79 8.37 20.25L7.76 19.86L5.85 21.41L4.58 20.14L6.13 18.23L5.74 17.62C5.2 16.78 4.82 15.85 4.6 14.87L4.44 14.17L1.99 13.91V12.11Z" fill="#FF3015"/>
<path d="M12.9602 19.33C14.5802 19.33 16.2002 18.71 17.4402 17.48C19.9102 15.01 19.9102 11 17.4402 8.52999C14.9702 6.05999 10.9602 6.05999 8.4902 8.52999C6.0202 11 6.0202 15.01 8.4902 17.48C9.7202 18.72 11.3402 19.33 12.9602 19.33ZM9.9002 9.94999C10.7402 9.10999 11.8502 8.67999 12.9602 8.67999C14.0702 8.67999 15.1802 9.09999 16.0202 9.94999C17.7102 11.64 17.7102 14.38 16.0202 16.07C14.3302 17.76 11.5902 17.76 9.9002 16.07C8.2202 14.38 8.2202 11.63 9.9002 9.94999Z" fill="#FF3015"/>
<path d="M70.7602 56.16L72.0502 54.63L57.7702 42.61V33.63L51.0202 26.88L53.0502 24.85H60.9402L68.9002 16.89L69.1002 10.26L65.9802 7.14L57.7802 15.34L55.7702 13.33L53.7602 11.32L61.9602 3.12L58.8402 0L52.2102 0.199999L44.2502 8.16V16.05L37.8202 22.48L35.2902 19.95L30.8302 24.41L28.9302 22.51L24.4902 26.95L23.0802 28.36L18.6402 32.8L20.5402 34.7L16.1102 39.13L18.6402 41.66L16.2502 44.05H8.3602L0.400195 52.01L0.200195 58.64L3.32019 61.76L11.5202 53.56L13.5302 55.57L15.5402 57.58L7.34019 65.78L10.4602 68.9L17.0902 68.7L25.0502 60.74V52.85L27.4402 50.46L34.4502 57.47H43.2502L55.0602 71.62L56.6002 70.34L44.1802 55.47H35.2702L30.4602 50.66L34.8902 46.23L38.6302 42.49L42.7702 38.35L45.2902 35.83V42.16H47.2902V31.02L41.9602 36.35L40.1602 36.3L38.2002 34.34L46.9202 25.62L55.7702 34.47V43.55L70.7602 56.16ZM35.3102 22.8L41.1102 28.6L38.0702 31.64L32.2702 25.84L35.3102 22.8ZM23.0402 52.03V59.92L16.2302 66.74L11.2602 66.89L10.1702 65.8L18.3702 57.6L14.9502 54.18L11.5302 50.76L3.33019 58.96L2.24019 57.87L2.3902 52.9L9.2002 46.09H17.0902L20.0702 43.11L26.0202 49.05L23.0402 52.03ZM29.0502 49.26L18.9502 39.16L21.9602 36.15L32.0602 46.25L29.0502 49.26ZM33.4802 44.83L21.9602 33.32L21.4702 32.83L24.5002 29.8L25.5002 30.8L36.5002 41.8L33.4802 44.83ZM39.3102 38.27L40.0102 38.29L37.9202 40.38L25.9202 28.38L28.9502 25.35L36.6502 33.05L35.3702 34.33L39.3102 38.27ZM42.5202 27.18L39.2502 23.91L46.2602 16.9V9.01L53.0802 2.2L58.0502 2.05L59.1402 3.14L50.9402 11.34L54.3602 14.76L57.7802 18.18L65.9802 9.98L67.0702 11.07L66.9202 16.04L60.1102 22.85H52.2202L49.6102 25.46L46.9302 22.78L42.5202 27.18Z" fill="#FF3015"/>
</svg>
