<svg width="81" height="90" viewBox="0 0 81 90" fill="none" xmlns="http://www.w3.org/2000/svg">
<g id="Group">
<path id="Compound Path" d="M71.4 89.9394V69.2874H81V16.9754L43.4 16.6831V0.317383H27.4V16.5857H19.4V5.5778H7.9C5.83899 5.57716 3.85932 6.36117 2.3834 7.76254C0.907475 9.16391 0.0521775 11.0717 0 13.0788V61.5916C0 62.6022 0.20434 63.6029 0.601352 64.5366C0.998364 65.4703 1.58027 66.3187 2.31386 67.0333C3.04744 67.7479 3.91833 68.3148 4.8768 68.7015C5.83527 69.0883 6.86256 69.2874 7.9 69.2874H51V89.9394H71.4ZM53 87.9911V34.1205H69.4V42.3033H64.2V44.2516H69.4V51.2655H64.2V53.2138H69.4V60.1303H64.2V62.0786H69.4V68.9951H64.2V70.9434H69.4V87.9911H53ZM29.4 12.3969H41.4V44.5439L35.4 54.2854L29.4 44.5439V12.3969ZM41.4 2.26569V10.4486H29.4V2.26569H41.4ZM2 14.54V13.2736C2 11.7493 2.62161 10.2874 3.72807 9.20951C4.83453 8.13165 6.33522 7.52611 7.9 7.52611H17.4V50.3888H7.9C6.77716 50.3689 5.66408 50.595 4.64291 51.0502C3.62174 51.5055 2.71855 52.1783 2 53.019V14.54ZM7.9 67.3391C6.33522 67.3391 4.83453 66.7335 3.72807 65.6557C2.62161 64.5778 2 63.1159 2 61.5916V58.0846C1.98646 57.3262 2.12981 56.5729 2.42152 55.8696C2.71323 55.1663 3.14732 54.5275 3.6979 53.9911C4.24849 53.4548 4.9043 53.0319 5.62624 52.7477C6.34818 52.4636 7.12147 52.3239 7.9 52.3371H19.4V18.4366H27.4V45.1284L35.4 58.0846L43.4 45.1284V18.6314L79 18.8263V67.3391H71.4V32.1722H51V67.3391H7.9Z" fill="#F45C00"/>
<path id="Compound Path_2" d="M61.1999 75.8143C60.5872 75.7225 59.9613 75.7608 59.3652 75.9267C58.769 76.0926 58.2168 76.382 57.7462 76.7753C57.2757 77.1685 56.898 77.6562 56.6391 78.205C56.3802 78.7537 56.2461 79.3505 56.2461 79.9545C56.2461 80.5584 56.3802 81.1552 56.6391 81.704C56.898 82.2527 57.2757 82.7404 57.7462 83.1337C58.2168 83.5269 58.769 83.8164 59.3652 83.9823C59.9613 84.1481 60.5872 84.1865 61.1999 84.0946C61.8127 84.1865 62.4386 84.1481 63.0347 83.9823C63.6308 83.8164 64.1831 83.5269 64.6536 83.1337C65.1242 82.7404 65.5018 82.2527 65.7608 81.704C66.0197 81.1552 66.1538 80.5584 66.1538 79.9545C66.1538 79.3505 66.0197 78.7537 65.7608 78.205C65.5018 77.6562 65.1242 77.1685 64.6536 76.7753C64.1831 76.382 63.6308 76.0926 63.0347 75.9267C62.4386 75.7608 61.8127 75.7225 61.1999 75.8143ZM61.1999 82.1463C60.745 82.1463 60.3004 82.0149 59.9221 81.7687C59.5439 81.5225 59.2491 81.1726 59.075 80.7632C58.9009 80.3538 58.8554 79.9033 58.9441 79.4687C59.0329 79.034 59.2519 78.6348 59.5736 78.3215C59.8952 78.0081 60.3051 77.7947 60.7512 77.7083C61.1974 77.6218 61.6598 77.6662 62.0801 77.8358C62.5004 78.0054 62.8596 78.2925 63.1123 78.661C63.365 79.0294 63.4999 79.4626 63.4999 79.9058C63.4999 80.5 63.2576 81.0699 62.8263 81.4901C62.3949 81.9103 61.8099 82.1463 61.1999 82.1463Z" fill="#F45C00"/>
</g>
</svg>
