<svg width="89" height="53" viewBox="0 0 89 53" fill="none" xmlns="http://www.w3.org/2000/svg">
<path d="M11.2131 1.34161L88.089 0.468018L84.5946 7.28203H41.2646L36.5472 27.1999L30.9097 14.9101C28.9697 10.6809 25.0748 7.67552 20.4919 6.8715L17.8524 6.40843L11.2131 40.8279H3.875L11.2131 1.34161Z" fill="#EE1B24"/>
<path d="M47.2054 13.7466H81.9742L80.0523 17.2409H51.5733L49.6514 24.9285H64.8519L77.0821 24.8412L76.0338 28.7723H62.93H48.7779L47.2054 35.9358H60.6587H74.4614L73.4131 39.9543H40.2167H18.377L23.4438 16.1926L27.9864 27.724L29.9266 31.6714C31.7489 35.3787 35.9188 37.3028 39.922 36.2836L41.2883 35.9358L44.2468 24.8412L47.2054 13.7466Z" fill="#165287"/>
<path d="M1.398 47.61V48.462H2.772V49.254H1.398V50.178H2.952V51H0.372V46.788H2.952V47.61H1.398ZM5.65809 47.616C6.05009 47.616 6.36209 47.744 6.59409 48C6.83009 48.252 6.94809 48.6 6.94809 49.044V51H5.92809V49.182C5.92809 48.958 5.87009 48.784 5.75409 48.66C5.63809 48.536 5.48209 48.474 5.28609 48.474C5.09009 48.474 4.93409 48.536 4.81809 48.66C4.70209 48.784 4.64409 48.958 4.64409 49.182V51H3.61809V47.652H4.64409V48.096C4.74809 47.948 4.88809 47.832 5.06409 47.748C5.24009 47.66 5.43809 47.616 5.65809 47.616ZM8.93306 47.604C9.16906 47.604 9.37506 47.652 9.55106 47.748C9.73106 47.844 9.86906 47.97 9.96506 48.126V47.652H10.9911V50.994C10.9911 51.302 10.9291 51.58 10.8051 51.828C10.6851 52.08 10.4991 52.28 10.2471 52.428C9.99906 52.576 9.68906 52.65 9.31706 52.65C8.82106 52.65 8.41906 52.532 8.11106 52.296C7.80306 52.064 7.62706 51.748 7.58306 51.348H8.59706C8.62906 51.476 8.70506 51.576 8.82506 51.648C8.94506 51.724 9.09306 51.762 9.26906 51.762C9.48106 51.762 9.64906 51.7 9.77306 51.576C9.90106 51.456 9.96506 51.262 9.96506 50.994V50.52C9.86506 50.676 9.72706 50.804 9.55106 50.904C9.37506 51 9.16906 51.048 8.93306 51.048C8.65706 51.048 8.40706 50.978 8.18306 50.838C7.95906 50.694 7.78106 50.492 7.64906 50.232C7.52106 49.968 7.45706 49.664 7.45706 49.32C7.45706 48.976 7.52106 48.674 7.64906 48.414C7.78106 48.154 7.95906 47.954 8.18306 47.814C8.40706 47.674 8.65706 47.604 8.93306 47.604ZM9.96506 49.326C9.96506 49.07 9.89306 48.868 9.74906 48.72C9.60906 48.572 9.43706 48.498 9.23306 48.498C9.02906 48.498 8.85506 48.572 8.71106 48.72C8.57106 48.864 8.50106 49.064 8.50106 49.32C8.50106 49.576 8.57106 49.78 8.71106 49.932C8.85506 50.08 9.02906 50.154 9.23306 50.154C9.43706 50.154 9.60906 50.08 9.74906 49.932C9.89306 49.784 9.96506 49.582 9.96506 49.326ZM12.2493 47.304C12.0693 47.304 11.9213 47.252 11.8053 47.148C11.6933 47.04 11.6373 46.908 11.6373 46.752C11.6373 46.592 11.6933 46.46 11.8053 46.356C11.9213 46.248 12.0693 46.194 12.2493 46.194C12.4253 46.194 12.5693 46.248 12.6813 46.356C12.7973 46.46 12.8553 46.592 12.8553 46.752C12.8553 46.908 12.7973 47.04 12.6813 47.148C12.5693 47.252 12.4253 47.304 12.2493 47.304ZM12.7593 47.652V51H11.7333V47.652H12.7593ZM15.5429 47.616C15.9349 47.616 16.2469 47.744 16.4789 48C16.7149 48.252 16.8329 48.6 16.8329 49.044V51H15.8129V49.182C15.8129 48.958 15.7549 48.784 15.6389 48.66C15.5229 48.536 15.3669 48.474 15.1709 48.474C14.9749 48.474 14.8189 48.536 14.7029 48.66C14.5869 48.784 14.5289 48.958 14.5289 49.182V51H13.5029V47.652H14.5289V48.096C14.6329 47.948 14.7729 47.832 14.9489 47.748C15.1249 47.66 15.3229 47.616 15.5429 47.616ZM20.7018 49.272C20.7018 49.368 20.6958 49.468 20.6838 49.572H18.3618C18.3778 49.78 18.4438 49.94 18.5598 50.052C18.6798 50.16 18.8258 50.214 18.9978 50.214C19.2538 50.214 19.4318 50.106 19.5318 49.89H20.6238C20.5678 50.11 20.4658 50.308 20.3178 50.484C20.1738 50.66 19.9918 50.798 19.7718 50.898C19.5518 50.998 19.3058 51.048 19.0338 51.048C18.7058 51.048 18.4138 50.978 18.1578 50.838C17.9018 50.698 17.7018 50.498 17.5578 50.238C17.4138 49.978 17.3418 49.674 17.3418 49.326C17.3418 48.978 17.4118 48.674 17.5518 48.414C17.6958 48.154 17.8958 47.954 18.1518 47.814C18.4078 47.674 18.7018 47.604 19.0338 47.604C19.3578 47.604 19.6458 47.672 19.8978 47.808C20.1498 47.944 20.3458 48.138 20.4858 48.39C20.6298 48.642 20.7018 48.936 20.7018 49.272ZM19.6518 49.002C19.6518 48.826 19.5918 48.686 19.4718 48.582C19.3518 48.478 19.2018 48.426 19.0218 48.426C18.8498 48.426 18.7038 48.476 18.5838 48.576C18.4678 48.676 18.3958 48.818 18.3678 49.002H19.6518ZM24.3991 49.272C24.3991 49.368 24.3931 49.468 24.3811 49.572H22.0591C22.0751 49.78 22.1411 49.94 22.2571 50.052C22.3771 50.16 22.5231 50.214 22.6951 50.214C22.9511 50.214 23.1291 50.106 23.2291 49.89H24.3211C24.2651 50.11 24.1631 50.308 24.0151 50.484C23.8711 50.66 23.6891 50.798 23.4691 50.898C23.2491 50.998 23.0031 51.048 22.7311 51.048C22.4031 51.048 22.1111 50.978 21.8551 50.838C21.5991 50.698 21.3991 50.498 21.2551 50.238C21.1111 49.978 21.0391 49.674 21.0391 49.326C21.0391 48.978 21.1091 48.674 21.2491 48.414C21.3931 48.154 21.5931 47.954 21.8491 47.814C22.1051 47.674 22.3991 47.604 22.7311 47.604C23.0551 47.604 23.3431 47.672 23.5951 47.808C23.8471 47.944 24.0431 48.138 24.1831 48.39C24.3271 48.642 24.3991 48.936 24.3991 49.272ZM23.3491 49.002C23.3491 48.826 23.2891 48.686 23.1691 48.582C23.0491 48.478 22.8991 48.426 22.7191 48.426C22.5471 48.426 22.4011 48.476 22.2811 48.576C22.1651 48.676 22.0931 48.818 22.0651 49.002H23.3491ZM25.9664 48.21C26.0864 48.026 26.2364 47.882 26.4164 47.778C26.5964 47.67 26.7964 47.616 27.0164 47.616V48.702H26.7344C26.4784 48.702 26.2864 48.758 26.1584 48.87C26.0304 48.978 25.9664 49.17 25.9664 49.446V51H24.9404V47.652H25.9664V48.21ZM28.0228 47.304C27.8428 47.304 27.6948 47.252 27.5788 47.148C27.4668 47.04 27.4108 46.908 27.4108 46.752C27.4108 46.592 27.4668 46.46 27.5788 46.356C27.6948 46.248 27.8428 46.194 28.0228 46.194C28.1988 46.194 28.3428 46.248 28.4548 46.356C28.5708 46.46 28.6288 46.592 28.6288 46.752C28.6288 46.908 28.5708 47.04 28.4548 47.148C28.3428 47.252 28.1988 47.304 28.0228 47.304ZM28.5328 47.652V51H27.5068V47.652H28.5328ZM31.3163 47.616C31.7083 47.616 32.0203 47.744 32.2523 48C32.4883 48.252 32.6063 48.6 32.6063 49.044V51H31.5863V49.182C31.5863 48.958 31.5283 48.784 31.4123 48.66C31.2963 48.536 31.1403 48.474 30.9443 48.474C30.7483 48.474 30.5923 48.536 30.4763 48.66C30.3603 48.784 30.3023 48.958 30.3023 49.182V51H29.2763V47.652H30.3023V48.096C30.4063 47.948 30.5463 47.832 30.7223 47.748C30.8983 47.66 31.0963 47.616 31.3163 47.616ZM34.5913 47.604C34.8273 47.604 35.0333 47.652 35.2093 47.748C35.3893 47.844 35.5273 47.97 35.6233 48.126V47.652H36.6493V50.994C36.6493 51.302 36.5873 51.58 36.4633 51.828C36.3433 52.08 36.1573 52.28 35.9053 52.428C35.6573 52.576 35.3473 52.65 34.9753 52.65C34.4793 52.65 34.0773 52.532 33.7693 52.296C33.4613 52.064 33.2853 51.748 33.2413 51.348H34.2553C34.2873 51.476 34.3633 51.576 34.4833 51.648C34.6033 51.724 34.7513 51.762 34.9273 51.762C35.1393 51.762 35.3073 51.7 35.4313 51.576C35.5593 51.456 35.6233 51.262 35.6233 50.994V50.52C35.5233 50.676 35.3853 50.804 35.2093 50.904C35.0333 51 34.8273 51.048 34.5913 51.048C34.3153 51.048 34.0653 50.978 33.8413 50.838C33.6173 50.694 33.4393 50.492 33.3073 50.232C33.1793 49.968 33.1153 49.664 33.1153 49.32C33.1153 48.976 33.1793 48.674 33.3073 48.414C33.4393 48.154 33.6173 47.954 33.8413 47.814C34.0653 47.674 34.3153 47.604 34.5913 47.604ZM35.6233 49.326C35.6233 49.07 35.5513 48.868 35.4073 48.72C35.2673 48.572 35.0953 48.498 34.8913 48.498C34.6873 48.498 34.5133 48.572 34.3693 48.72C34.2293 48.864 34.1593 49.064 34.1593 49.32C34.1593 49.576 34.2293 49.78 34.3693 49.932C34.5133 50.08 34.6873 50.154 34.8913 50.154C35.0953 50.154 35.2673 50.08 35.4073 49.932C35.5513 49.784 35.6233 49.582 35.6233 49.326ZM41.885 51L41.495 50.622C41.107 50.918 40.643 51.066 40.103 51.066C39.779 51.066 39.497 51.014 39.257 50.91C39.017 50.802 38.831 50.652 38.699 50.46C38.571 50.264 38.507 50.036 38.507 49.776C38.507 49.512 38.577 49.274 38.717 49.062C38.861 48.846 39.075 48.67 39.359 48.534C39.255 48.406 39.181 48.284 39.137 48.168C39.093 48.048 39.071 47.918 39.071 47.778C39.071 47.578 39.123 47.396 39.227 47.232C39.331 47.068 39.481 46.94 39.677 46.848C39.877 46.752 40.113 46.704 40.385 46.704C40.661 46.704 40.895 46.754 41.087 46.854C41.279 46.954 41.423 47.088 41.519 47.256C41.615 47.424 41.659 47.608 41.651 47.808H40.685C40.689 47.7 40.661 47.618 40.601 47.562C40.545 47.502 40.469 47.472 40.373 47.472C40.277 47.472 40.197 47.5 40.133 47.556C40.069 47.612 40.037 47.684 40.037 47.772C40.037 47.856 40.063 47.944 40.115 48.036C40.171 48.128 40.257 48.234 40.373 48.354L41.399 49.356C41.407 49.336 41.417 49.312 41.429 49.284C41.445 49.256 41.461 49.224 41.477 49.188L41.699 48.81H42.725L42.437 49.332C42.329 49.568 42.205 49.792 42.065 50.004L43.079 51H41.885ZM40.151 50.238C40.419 50.238 40.657 50.162 40.865 50.01L39.929 49.104C39.641 49.252 39.497 49.452 39.497 49.704C39.497 49.856 39.555 49.984 39.671 50.088C39.791 50.188 39.951 50.238 40.151 50.238ZM44.5176 49.326C44.5176 48.978 44.5876 48.674 44.7276 48.414C44.8716 48.154 45.0696 47.954 45.3216 47.814C45.5776 47.674 45.8696 47.604 46.1976 47.604C46.6176 47.604 46.9676 47.714 47.2476 47.934C47.5316 48.154 47.7176 48.464 47.8056 48.864H46.7136C46.6216 48.608 46.4436 48.48 46.1796 48.48C45.9916 48.48 45.8416 48.554 45.7296 48.702C45.6176 48.846 45.5616 49.054 45.5616 49.326C45.5616 49.598 45.6176 49.808 45.7296 49.956C45.8416 50.1 45.9916 50.172 46.1796 50.172C46.4436 50.172 46.6216 50.044 46.7136 49.788H47.8056C47.7176 50.18 47.5316 50.488 47.2476 50.712C46.9636 50.936 46.6136 51.048 46.1976 51.048C45.8696 51.048 45.5776 50.978 45.3216 50.838C45.0696 50.698 44.8716 50.498 44.7276 50.238C44.5876 49.978 44.5176 49.674 44.5176 49.326ZM49.8784 51.048C49.5504 51.048 49.2544 50.978 48.9904 50.838C48.7304 50.698 48.5244 50.498 48.3724 50.238C48.2244 49.978 48.1504 49.674 48.1504 49.326C48.1504 48.982 48.2264 48.68 48.3784 48.42C48.5304 48.156 48.7384 47.954 49.0024 47.814C49.2664 47.674 49.5624 47.604 49.8904 47.604C50.2184 47.604 50.5144 47.674 50.7784 47.814C51.0424 47.954 51.2504 48.156 51.4024 48.42C51.5544 48.68 51.6304 48.982 51.6304 49.326C51.6304 49.67 51.5524 49.974 51.3964 50.238C51.2444 50.498 51.0344 50.698 50.7664 50.838C50.5024 50.978 50.2064 51.048 49.8784 51.048ZM49.8784 50.16C50.0744 50.16 50.2404 50.088 50.3764 49.944C50.5164 49.8 50.5864 49.594 50.5864 49.326C50.5864 49.058 50.5184 48.852 50.3824 48.708C50.2504 48.564 50.0864 48.492 49.8904 48.492C49.6904 48.492 49.5244 48.564 49.3924 48.708C49.2604 48.848 49.1944 49.054 49.1944 49.326C49.1944 49.594 49.2584 49.8 49.3864 49.944C49.5184 50.088 49.6824 50.16 49.8784 50.16ZM54.2147 47.616C54.6067 47.616 54.9187 47.744 55.1507 48C55.3867 48.252 55.5047 48.6 55.5047 49.044V51H54.4847V49.182C54.4847 48.958 54.4267 48.784 54.3107 48.66C54.1947 48.536 54.0387 48.474 53.8427 48.474C53.6467 48.474 53.4907 48.536 53.3747 48.66C53.2587 48.784 53.2007 48.958 53.2007 49.182V51H52.1747V47.652H53.2007V48.096C53.3047 47.948 53.4447 47.832 53.6207 47.748C53.7967 47.66 53.9947 47.616 54.2147 47.616ZM57.5797 51.048C57.2877 51.048 57.0277 50.998 56.7997 50.898C56.5717 50.798 56.3917 50.662 56.2597 50.49C56.1277 50.314 56.0537 50.118 56.0377 49.902H57.0517C57.0637 50.018 57.1177 50.112 57.2137 50.184C57.3097 50.256 57.4277 50.292 57.5677 50.292C57.6957 50.292 57.7937 50.268 57.8617 50.22C57.9337 50.168 57.9697 50.102 57.9697 50.022C57.9697 49.926 57.9197 49.856 57.8197 49.812C57.7197 49.764 57.5577 49.712 57.3337 49.656C57.0937 49.6 56.8937 49.542 56.7337 49.482C56.5737 49.418 56.4357 49.32 56.3197 49.188C56.2037 49.052 56.1457 48.87 56.1457 48.642C56.1457 48.45 56.1977 48.276 56.3017 48.12C56.4097 47.96 56.5657 47.834 56.7697 47.742C56.9777 47.65 57.2237 47.604 57.5077 47.604C57.9277 47.604 58.2577 47.708 58.4977 47.916C58.7417 48.124 58.8817 48.4 58.9177 48.744H57.9697C57.9537 48.628 57.9017 48.536 57.8137 48.468C57.7297 48.4 57.6177 48.366 57.4777 48.366C57.3577 48.366 57.2657 48.39 57.2017 48.438C57.1377 48.482 57.1057 48.544 57.1057 48.624C57.1057 48.72 57.1557 48.792 57.2557 48.84C57.3597 48.888 57.5197 48.936 57.7357 48.984C57.9837 49.048 58.1857 49.112 58.3417 49.176C58.4977 49.236 58.6337 49.336 58.7497 49.476C58.8697 49.612 58.9317 49.796 58.9357 50.028C58.9357 50.224 58.8797 50.4 58.7677 50.556C58.6597 50.708 58.5017 50.828 58.2937 50.916C58.0897 51.004 57.8517 51.048 57.5797 51.048ZM61.4294 50.13V51H60.9074C60.5354 51 60.2454 50.91 60.0374 50.73C59.8294 50.546 59.7254 50.248 59.7254 49.836V48.504H59.3174V47.652H59.7254V46.836H60.7514V47.652H61.4234V48.504H60.7514V49.848C60.7514 49.948 60.7754 50.02 60.8234 50.064C60.8714 50.108 60.9514 50.13 61.0634 50.13H61.4294ZM63.0269 48.21C63.1469 48.026 63.2969 47.882 63.4769 47.778C63.6569 47.67 63.8569 47.616 64.0769 47.616V48.702H63.7949C63.5389 48.702 63.3469 48.758 63.2189 48.87C63.0909 48.978 63.0269 49.17 63.0269 49.446V51H62.0009V47.652H63.0269V48.21ZM67.8733 47.652V51H66.8473V50.544C66.7433 50.692 66.6013 50.812 66.4213 50.904C66.2453 50.992 66.0493 51.036 65.8333 51.036C65.5773 51.036 65.3513 50.98 65.1553 50.868C64.9593 50.752 64.8073 50.586 64.6993 50.37C64.5913 50.154 64.5373 49.9 64.5373 49.608V47.652H65.5573V49.47C65.5573 49.694 65.6153 49.868 65.7313 49.992C65.8473 50.116 66.0033 50.178 66.1993 50.178C66.3993 50.178 66.5573 50.116 66.6733 49.992C66.7893 49.868 66.8473 49.694 66.8473 49.47V47.652H67.8733ZM68.4063 49.326C68.4063 48.978 68.4763 48.674 68.6163 48.414C68.7603 48.154 68.9583 47.954 69.2103 47.814C69.4663 47.674 69.7583 47.604 70.0863 47.604C70.5063 47.604 70.8563 47.714 71.1363 47.934C71.4203 48.154 71.6063 48.464 71.6943 48.864H70.6023C70.5103 48.608 70.3323 48.48 70.0683 48.48C69.8803 48.48 69.7303 48.554 69.6183 48.702C69.5063 48.846 69.4503 49.054 69.4503 49.326C69.4503 49.598 69.5063 49.808 69.6183 49.956C69.7303 50.1 69.8803 50.172 70.0683 50.172C70.3323 50.172 70.5103 50.044 70.6023 49.788H71.6943C71.6063 50.18 71.4203 50.488 71.1363 50.712C70.8523 50.936 70.5023 51.048 70.0863 51.048C69.7583 51.048 69.4663 50.978 69.2103 50.838C68.9583 50.698 68.7603 50.498 68.6163 50.238C68.4763 49.978 68.4063 49.674 68.4063 49.326ZM74.1091 50.13V51H73.5871C73.2151 51 72.9251 50.91 72.7171 50.73C72.5091 50.546 72.4051 50.248 72.4051 49.836V48.504H71.9971V47.652H72.4051V46.836H73.4311V47.652H74.1031V48.504H73.4311V49.848C73.4311 49.948 73.4551 50.02 73.5031 50.064C73.5511 50.108 73.6311 50.13 73.7431 50.13H74.1091ZM75.1966 47.304C75.0166 47.304 74.8686 47.252 74.7526 47.148C74.6406 47.04 74.5846 46.908 74.5846 46.752C74.5846 46.592 74.6406 46.46 74.7526 46.356C74.8686 46.248 75.0166 46.194 75.1966 46.194C75.3726 46.194 75.5166 46.248 75.6286 46.356C75.7446 46.46 75.8026 46.592 75.8026 46.752C75.8026 46.908 75.7446 47.04 75.6286 47.148C75.5166 47.252 75.3726 47.304 75.1966 47.304ZM75.7066 47.652V51H74.6806V47.652H75.7066ZM77.9741 51.048C77.6461 51.048 77.3501 50.978 77.0861 50.838C76.8261 50.698 76.6201 50.498 76.4681 50.238C76.3201 49.978 76.2461 49.674 76.2461 49.326C76.2461 48.982 76.3221 48.68 76.4741 48.42C76.6261 48.156 76.8341 47.954 77.0981 47.814C77.3621 47.674 77.6581 47.604 77.9861 47.604C78.3141 47.604 78.6101 47.674 78.8741 47.814C79.1381 47.954 79.3461 48.156 79.4981 48.42C79.6501 48.68 79.7261 48.982 79.7261 49.326C79.7261 49.67 79.6481 49.974 79.4921 50.238C79.3401 50.498 79.1301 50.698 78.8621 50.838C78.5981 50.978 78.3021 51.048 77.9741 51.048ZM77.9741 50.16C78.1701 50.16 78.3361 50.088 78.4721 49.944C78.6121 49.8 78.6821 49.594 78.6821 49.326C78.6821 49.058 78.6141 48.852 78.4781 48.708C78.3461 48.564 78.1821 48.492 77.9861 48.492C77.7861 48.492 77.6201 48.564 77.4881 48.708C77.3561 48.848 77.2901 49.054 77.2901 49.326C77.2901 49.594 77.3541 49.8 77.4821 49.944C77.6141 50.088 77.7781 50.16 77.9741 50.16ZM82.3104 47.616C82.7024 47.616 83.0144 47.744 83.2464 48C83.4824 48.252 83.6004 48.6 83.6004 49.044V51H82.5804V49.182C82.5804 48.958 82.5224 48.784 82.4064 48.66C82.2904 48.536 82.1344 48.474 81.9384 48.474C81.7424 48.474 81.5864 48.536 81.4704 48.66C81.3544 48.784 81.2964 48.958 81.2964 49.182V51H80.2704V47.652H81.2964V48.096C81.4004 47.948 81.5404 47.832 81.7164 47.748C81.8924 47.66 82.0904 47.616 82.3104 47.616Z" fill="#EE1B24"/>
</svg>
