<svg width="63" height="62" viewBox="0 0 63 62" fill="none" xmlns="http://www.w3.org/2000/svg">
<path d="M59.9771 48.774C59.3051 44.745 56.4801 41.439 52.6051 40.147L44.0001 37.279V36H42.0001V37.749L35.0001 50.875L28.0001 37.75V36H26.0001V38.25L34.0001 53.25V55H22.0001V57H34.0001V60H19.1331L19.9311 53.615C21.2201 52.767 22.0001 51.336 22.0001 49.764V49H20.0001V49.764C20.0001 50.762 19.4451 51.66 18.5531 52.106L18.0741 52.345L17.1171 60H10.1801L11.3191 53.164L9.34609 52.836L7.81909 62H62.1801L59.9771 48.774ZM36.0001 57H48.0001V55H36.0001V53.25L43.4851 39.216L48.0001 40.72V49.763C48.0001 51.335 48.7801 52.766 50.0691 53.615L50.8671 60H36.0001V57ZM52.8831 60L51.9261 52.345L51.4471 52.106C50.5551 51.659 50.0001 50.762 50.0001 49.764V41.387L51.9721 42.044C55.1431 43.102 57.4541 45.807 58.0041 49.103L59.8191 60H52.8831Z" fill="white"/>
<path d="M18 22C18 24.566 19.95 26.662 22.442 26.944C22.952 28.699 23.894 30.308 25.222 31.636L29.121 35.535C30.065 36.479 31.321 37 32.657 37H37.343C38.679 37 39.935 36.479 40.879 35.535L44.778 31.636C46.106 30.308 47.047 28.699 47.558 26.944C50.05 26.662 52 24.566 52 22C52 20.87 51.609 19.838 50.974 19H53V13H49.857C49.062 7.097 44.753 2.158 39 0.564V0H31V0.564C25.248 2.158 20.939 7.097 20.143 13H17V19H19.026C18.391 19.838 18 20.87 18 22ZM20 22C20 20.698 20.839 19.598 22 19.184V23.857C22 24.184 22.019 24.508 22.047 24.83C20.862 24.43 20 23.319 20 22ZM43.364 30.222L39.465 34.121C38.898 34.688 38.145 35 37.343 35H32.657C31.855 35 31.101 34.688 30.535 34.121L26.636 30.222C24.937 28.522 24 26.262 24 23.858V19H46V23.857C46 26.262 45.063 28.521 43.364 30.222ZM47.953 24.83C47.981 24.508 48 24.185 48 23.857V19.184C49.161 19.598 50 20.698 50 22C50 23.319 49.138 24.43 47.953 24.83ZM31 2.646V11H33V2H37V11H39V2.646C43.634 4.149 47.094 8.185 47.846 13H22.154C22.907 8.184 26.366 4.149 31 2.646ZM19 15H51V17H19V15Z" fill="white"/>
<path d="M43 9H41V11H43V9Z" fill="white"/>
<path d="M29 9H27V11H29V9Z" fill="white"/>
<path d="M9.18105 51.0001H14.8201L15.3371 48.4221C15.6681 48.3061 15.9921 48.1721 16.307 48.0231L18.4941 49.4801L22.4811 45.4931L21.0241 43.3061C21.1731 42.9921 21.3071 42.6671 21.4231 42.3361L24.0001 41.8191V36.1801L21.4221 35.6631C21.2351 35.1341 21.0071 34.6241 20.7381 34.1421L18.9901 35.1151C19.2831 35.6401 19.5171 36.2091 19.6861 36.8031L19.8541 37.3891L22.0001 37.8191V40.1801L19.8541 40.6101L19.6861 41.1961C19.5171 41.7911 19.2831 42.3591 18.9901 42.8841L18.6931 43.4171L19.9051 45.2351L18.2361 46.9041L16.418 45.6921L15.8851 45.9891C15.3601 46.2821 14.791 46.5161 14.1971 46.6851L13.6111 46.8521L13.1811 49.0001H10.8201L10.3901 46.8541L9.80405 46.6871C9.20905 46.5181 8.64105 46.2841 8.11605 45.9911L7.58305 45.6941L5.76505 46.9061L3.51605 44.6581L2.10205 46.0721L5.50905 49.4801L7.69605 48.0231C8.01005 48.1721 8.33505 48.3061 8.66605 48.4221L9.18105 51.0001Z" fill="white"/>
<path d="M3.262 43.857L5.01 42.884C4.717 42.359 4.483 41.79 4.314 41.196L4.146 40.61L2 40.181V37.82L4.146 37.39L4.314 36.804C4.483 36.209 4.717 35.641 5.01 35.116L5.307 34.583L4.095 32.765L5.764 31.096L7.582 32.308L8.115 32.011C8.64 31.718 9.209 31.484 9.803 31.315L10.389 31.148L10.819 29H13.18L13.61 31.146L14.196 31.313C14.791 31.482 15.359 31.716 15.884 32.009L16.417 32.306L18.235 31.094L20.484 33.342L21.898 31.928L18.491 28.52L16.304 29.977C15.99 29.828 15.665 29.694 15.334 29.578L14.819 27H9.18L8.663 29.578C8.332 29.694 8.008 29.828 7.693 29.977L5.506 28.52L1.519 32.507L2.976 34.694C2.827 35.008 2.693 35.333 2.577 35.664L0 36.181V41.82L2.578 42.337C2.765 42.865 2.993 43.375 3.262 43.857Z" fill="white"/>
<path d="M12 34C9.243 34 7 36.243 7 39C7 41.757 9.243 44 12 44C14.757 44 17 41.757 17 39C17 36.243 14.757 34 12 34ZM12 42C10.346 42 9 40.654 9 39C9 37.346 10.346 36 12 36C13.654 36 15 37.346 15 39C15 40.654 13.654 42 12 42Z" fill="white"/>
</svg>
