<svg width="85" height="84" viewBox="0 0 85 84" fill="none" xmlns="http://www.w3.org/2000/svg">
<g id="Group">
<path id="Vector" d="M79.8646 42.782H76.6771C75.9688 40.8844 74.1979 39.5044 72.0729 39.5044H64.2812C62.1562 39.5044 60.3854 40.8844 59.6771 42.782H56.4896C53.6563 42.782 51.3542 45.0246 51.3542 47.7847V52.7874C50.6458 52.7874 49.9375 52.6149 49.2292 52.6149H21.4271C9.5625 52.7874 0 62.1027 0 73.6606V81.7684C0 82.8034 0.708333 83.4935 1.77083 83.4935C22.8438 83.4935 46.5729 83.4935 79.8646 83.4935C82.6979 83.4935 85 81.2509 85 78.4908V47.7847C85 45.0246 82.6979 42.782 79.8646 42.782ZM3.54167 80.0433V73.6606C3.54167 64.0003 11.5104 56.2375 21.4271 56.2375H49.5833C50.2917 56.2375 51 56.2375 51.7083 56.41V78.6633C51.7083 79.1808 51.8854 79.6983 51.8854 80.2158H3.54167V80.0433ZM63.2188 44.1621C63.2188 43.472 63.75 42.9545 64.4583 42.9545H72.25C72.9583 42.9545 73.4896 43.472 73.4896 44.1621V44.5071C73.4896 45.1971 72.9583 45.7146 72.25 45.7146H64.4583C63.75 45.7146 63.2188 45.1971 63.2188 44.5071V44.1621ZM81.4583 78.4908C81.4583 79.3533 80.75 80.0433 79.8646 80.0433H57.9063H57.7292H56.6667C55.9583 79.8708 55.25 79.3533 55.25 78.4908V47.7847C55.25 46.9222 55.9583 46.2321 56.8438 46.2321H60.0313C60.7396 47.9572 62.5104 49.3372 64.4583 49.3372H72.25C74.375 49.3372 75.9688 48.1297 76.6771 46.2321H79.8646C80.75 46.2321 81.4583 46.9222 81.4583 47.7847V78.4908Z" fill="#F45C00"/>
<path id="Vector_2" d="M76.3231 72.6255H60.3856C59.3231 72.6255 58.6147 73.3155 58.6147 74.3505C58.6147 75.3856 59.3231 76.0756 60.3856 76.0756H76.3231C77.3856 76.0756 78.0939 75.3856 78.0939 74.3505C78.0939 73.3155 77.2085 72.6255 76.3231 72.6255Z" fill="#F45C00"/>
<path id="Vector_3" d="M76.3231 66.5879H60.3856C59.3231 66.5879 58.6147 67.2779 58.6147 68.313C58.6147 69.348 59.3231 70.038 60.3856 70.038H76.3231C77.3856 70.038 78.0939 69.348 78.0939 68.313C78.0939 67.2779 77.2085 66.5879 76.3231 66.5879Z" fill="#F45C00"/>
<path id="Vector_4" d="M66.5838 62.2751C66.938 62.6201 67.2922 62.7926 67.8234 62.7926C68.3547 62.7926 68.7088 62.6201 69.063 62.2751L74.7297 56.7549C75.438 56.0648 75.438 55.0298 74.7297 54.3398C74.0213 53.6498 72.9588 53.6498 72.2505 54.3398L67.8234 58.6524L66.2297 57.0999C65.5213 56.4099 64.4588 56.4099 63.7505 57.0999C63.0422 57.7899 63.0422 58.8249 63.7505 59.515L66.5838 62.2751Z" fill="#F45C00"/>
<path id="Vector_5" d="M56.4893 26.3938C56.4893 25.3588 55.7809 24.6688 54.7184 24.6688H54.0101C54.0101 24.3238 54.0101 23.8062 54.0101 23.4612C54.0101 15.871 49.2288 9.14323 41.9684 6.38313L42.1455 4.83058C42.1455 3.62303 41.7913 2.588 41.083 1.72547C40.1976 1.03544 39.3122 0.69043 38.4268 0.69043H32.0518C31.1663 0.69043 30.2809 1.03544 29.5726 1.72547C28.6872 2.588 28.333 3.62303 28.333 4.83058L28.5101 6.38313C21.2497 9.14323 16.4684 15.871 16.4684 23.4612C16.4684 23.8062 16.4684 24.3238 16.4684 24.6688H15.7601C14.6976 24.6688 13.9893 25.3588 13.9893 26.3938C13.9893 27.4289 14.6976 28.1189 15.7601 28.1189H18.2393C18.2393 28.2914 18.2393 28.4639 18.2393 28.8089C18.2393 38.1243 26.0309 49.6822 35.2393 49.6822C44.4476 49.6822 52.2393 38.2968 52.2393 28.8089C52.2393 28.6364 52.2393 28.4639 52.2393 28.1189H54.7184C55.6038 28.1189 56.4893 27.2564 56.4893 26.3938ZM32.0518 4.14055H38.4268C38.4268 4.14055 38.6038 4.31306 38.6038 4.65807L37.8955 16.906H32.9372L31.8747 4.65807C31.8747 4.31306 32.0518 4.14055 32.0518 4.14055ZM35.2393 46.0595C28.1559 46.0595 21.7809 36.3992 21.7809 28.6364C21.7809 28.4639 21.7809 28.2914 21.7809 27.9464H48.6976C48.6976 28.1189 48.6976 28.4639 48.6976 28.6364C48.6976 36.3992 42.3226 46.0595 35.2393 46.0595ZM50.4684 24.6688H20.0101C20.0101 24.3238 20.0101 23.8062 20.0101 23.4612C20.0101 17.596 23.5518 12.5934 28.8643 10.1783L29.3955 17.251C29.5726 18.9761 30.9893 20.5286 32.9372 20.5286H38.0726C39.8434 20.5286 41.4372 19.1486 41.6143 17.251L42.1455 10.1783C47.458 12.5934 50.9997 17.7685 50.9997 23.4612C50.4684 23.8062 50.4684 24.1513 50.4684 24.6688Z" fill="#F45C00"/>
</g>
</svg>
