<svg width="71" height="90" viewBox="0 0 71 90" fill="none" xmlns="http://www.w3.org/2000/svg">
<path d="M35.0649 13.711C30.6804 13.711 26.3945 15.0111 22.749 17.447C19.1035 19.8828 16.2621 23.345 14.5843 27.3957C12.9064 31.4463 12.4674 35.9036 13.3228 40.2038C14.1782 44.5039 16.2895 48.4539 19.3897 51.5541C22.49 54.6544 26.4399 56.7657 30.7401 57.621C35.0403 58.4764 39.4975 58.0374 43.5482 56.3596C47.5989 54.6817 51.061 51.8404 53.4969 48.1949C55.9327 44.5494 57.2329 40.2634 57.2329 35.879C57.2262 30.0017 54.8886 24.367 50.7327 20.2112C46.5768 16.0553 40.9421 13.7176 35.0649 13.711ZM35.0649 55.32C31.2198 55.32 27.4611 54.1798 24.264 52.0436C21.067 49.9074 18.5752 46.8711 17.1037 43.3187C15.6323 39.7664 15.2473 35.8574 15.9974 32.0863C16.7475 28.3151 18.5991 24.851 21.318 22.1321C24.0369 19.4133 27.5009 17.5617 31.2721 16.8116C35.0433 16.0614 38.9522 16.4464 42.5046 17.9179C46.057 19.3893 49.0933 21.8811 51.2295 25.0782C53.3657 28.2752 54.5059 32.0339 54.5059 35.879C54.5 41.0333 52.4499 45.9748 48.8053 49.6194C45.1607 53.2641 40.2191 55.3142 35.0649 55.32ZM68.4469 35.879C68.5374 34.8029 68.7987 33.748 69.2208 32.754C69.8028 31.107 70.4049 29.403 69.9949 27.654C69.5799 25.886 68.2189 24.598 67.0179 23.46C66.2444 22.8187 65.581 22.0553 65.0538 21.2C64.6981 20.2537 64.5031 19.2546 64.4769 18.244C64.4836 16.5398 63.9906 14.871 63.0589 13.444C61.8679 12.225 60.3447 11.3834 58.6789 11.024C57.707 10.7842 56.7825 10.3826 55.9439 9.836C55.2299 9.13683 54.6377 8.3233 54.1919 7.429C53.3699 6.029 52.4399 4.437 50.8439 3.655C49.2479 2.873 47.4989 3.095 45.8009 3.307C44.7846 3.50064 43.7435 3.52665 42.7189 3.384C41.7473 3.06169 40.8323 2.58931 40.0069 1.984C38.5739 1.049 36.9489 0 35.0649 0C33.1809 0 31.5559 1.047 30.1229 1.971C29.298 2.57873 28.3829 3.05317 27.4109 3.377C26.3862 3.51965 25.3451 3.49364 24.3289 3.3C22.6289 3.088 20.8739 2.869 19.2859 3.648C17.6979 4.427 16.7599 6.02 15.9379 7.422C15.492 8.3163 14.8998 9.12983 14.1859 9.829C13.3472 10.3756 12.4227 10.7772 11.4509 11.017C9.78503 11.3764 8.26177 12.218 7.07085 13.437C5.97085 14.807 5.80185 16.631 5.65185 18.237C5.6263 19.2479 5.4316 20.2474 5.07585 21.194C4.5487 22.0499 3.8853 22.814 3.11185 23.456C1.91185 24.594 0.549853 25.882 0.134853 27.65C-0.275147 29.398 0.326853 31.102 0.908853 32.75C1.33102 33.744 1.59229 34.7989 1.68285 35.875C1.59231 36.9515 1.33105 38.0067 0.908853 39.001C0.326853 40.648 -0.275147 42.351 0.134853 44.101C0.549853 45.869 1.91085 47.158 3.11185 48.295C3.88535 48.9374 4.54874 49.7018 5.07585 50.558C5.4316 51.5046 5.6263 52.5041 5.65185 53.515C5.64608 55.2192 6.13937 56.8878 7.07085 58.315C8.26203 59.5336 9.78517 60.3752 11.4509 60.735L11.5829 60.777L0.890853 79.536C0.760492 79.7643 0.698958 80.0255 0.71367 80.288C0.728382 80.5506 0.818712 80.8032 0.97377 81.0156C1.12883 81.2279 1.342 81.3909 1.58758 81.4848C1.83315 81.5788 2.10066 81.5997 2.35785 81.545L12.3029 79.44L15.5559 89.071C15.6402 89.3199 15.7946 89.5391 16.0006 89.7023C16.2065 89.8656 16.4553 89.9658 16.7169 89.991C16.7604 89.9958 16.8041 89.9981 16.8479 89.998C17.0885 89.998 17.3248 89.9343 17.5329 89.8135C17.741 89.6926 17.9135 89.519 18.0329 89.31L29.4199 69.337C29.6509 69.481 29.8849 69.637 30.1199 69.785C31.5529 70.709 33.1779 71.756 35.0619 71.756C36.9459 71.756 38.5709 70.709 40.0039 69.785C40.2419 69.632 40.4759 69.485 40.7039 69.337L52.0979 89.31C52.2168 89.5192 52.389 89.6933 52.5969 89.8145C52.8049 89.9357 53.0412 89.9997 53.2819 90C53.3256 90.0001 53.3694 89.9978 53.4129 89.993C53.6745 89.9679 53.9233 89.8677 54.1292 89.7045C54.3352 89.5413 54.4896 89.322 54.5739 89.073L57.8269 79.442L67.7719 81.547C68.029 81.6017 68.2965 81.5808 68.5421 81.4868C68.7877 81.3929 69.0009 81.2299 69.1559 81.0176C69.311 80.8052 69.4013 80.5526 69.416 80.29C69.4307 80.0275 69.3692 79.7663 69.2389 79.538L58.5459 60.782L58.6789 60.74C60.3447 60.3806 61.8679 59.539 63.0589 58.32C63.9905 56.893 64.4835 55.2242 64.4769 53.52C64.5032 52.5091 64.6982 51.5097 65.0538 50.563C65.581 49.7068 66.2444 48.9424 67.0179 48.3C68.2179 47.163 69.5799 45.874 69.9949 44.106C70.4049 42.358 69.8028 40.655 69.2208 39.006C68.7986 38.0113 68.5373 36.9558 68.4469 35.879ZM17.1649 85.32L14.4949 77.42C14.3885 77.1031 14.1694 76.8363 13.8792 76.6703C13.589 76.5044 13.2479 76.4509 12.9209 76.52L4.76485 78.248L14.1039 61.869C14.1309 61.889 14.1609 61.907 14.1869 61.928C14.9008 62.6268 15.493 63.44 15.9389 64.334C16.7609 65.734 17.6909 67.326 19.2869 68.109C20.8829 68.892 22.6319 68.668 24.3299 68.457C25.1703 68.321 26.0221 68.2684 26.8729 68.3L17.1649 85.32ZM65.3649 78.248L57.2049 76.521C56.8778 76.4517 56.5366 76.5051 56.2463 76.671C55.9561 76.837 55.737 77.1039 55.6309 77.421L52.9609 85.321L43.2609 68.301C44.1116 68.2699 44.9634 68.3225 45.8039 68.458C47.5039 68.669 49.2589 68.889 50.8469 68.11C52.4349 67.331 53.3729 65.738 54.1949 64.335C54.6407 63.441 55.2329 62.6278 55.9469 61.929C55.9729 61.908 56.0029 61.89 56.0299 61.87L65.3649 78.248ZM66.6488 39.913C67.1805 41.0233 67.418 42.2515 67.3389 43.48C66.869 44.6034 66.1099 45.5823 65.1388 46.317C64.1194 47.1725 63.2604 48.2025 62.6019 49.359C62.0861 50.5991 61.8001 51.9226 61.7579 53.265C61.7785 54.4343 61.4923 55.5887 60.9279 56.613C60.0523 57.3845 58.9889 57.9119 57.8449 58.142C56.5509 58.4693 55.328 59.0313 54.2369 59.8C53.2519 60.6972 52.4386 61.7663 51.8369 62.955C51.3557 64.0326 50.5985 64.964 49.6419 65.655C48.5013 65.9894 47.2932 66.0208 46.1369 65.746C44.8017 65.4984 43.4331 65.4896 42.0949 65.72C40.8144 66.1025 39.6085 66.7004 38.5289 67.488C37.5304 68.2983 36.3353 68.83 35.0649 69.029C33.7946 68.8316 32.5991 68.3017 31.5999 67.493C30.5203 66.7054 29.3143 66.1075 28.0339 65.725C27.4967 65.6039 26.9474 65.5455 26.3969 65.551C25.5918 65.5679 24.7886 65.6347 23.9919 65.751C22.8355 66.0258 21.6274 65.9944 20.4869 65.66C19.5283 64.9697 18.7694 64.0382 18.2869 62.96C17.6851 61.7713 16.8718 60.7022 15.8869 59.805C14.7946 59.0355 13.5703 58.4732 12.2749 58.146C11.1308 57.9159 10.0675 57.3885 9.19185 56.617C8.62742 55.5927 8.34125 54.4384 8.36185 53.269C8.3196 51.9266 8.03361 50.6031 7.51785 49.363C6.85932 48.2065 6.00026 47.1765 4.98085 46.321C4.00977 45.5863 3.25068 44.6074 2.78085 43.484C2.70166 42.2555 2.93925 41.0273 3.47085 39.917C4.0075 38.6348 4.32199 37.2707 4.40085 35.883C4.322 34.4956 4.0075 33.1318 3.47085 31.85C2.93925 30.7393 2.70167 29.5108 2.78085 28.282C3.25102 27.1588 4.01004 26.18 4.98085 25.445C6.00296 24.5894 6.86414 23.5582 7.52385 22.4C8.03961 21.1599 8.3256 19.8364 8.36785 18.494C8.34724 17.325 8.63342 16.171 9.19785 15.147C10.0732 14.3751 11.1366 13.8477 12.2809 13.618C13.576 13.29 14.8001 12.7277 15.8929 11.959C16.8778 11.0614 17.6911 9.99199 18.2929 8.803C18.7751 7.72463 19.5341 6.79309 20.4929 6.103C21.6333 5.76805 22.8415 5.73669 23.9979 6.012C25.3331 6.25958 26.7016 6.26838 28.0399 6.038C29.3203 5.65553 30.5263 5.05764 31.6059 4.27C32.603 3.46057 33.7962 2.92897 35.0649 2.729C36.3352 2.92679 37.5306 3.45705 38.5299 4.266C39.6095 5.05363 40.8154 5.65153 42.0959 6.034C43.4341 6.26438 44.8027 6.25558 46.1379 6.008C47.2942 5.73269 48.5024 5.76405 49.6429 6.099C50.5998 6.78974 51.357 7.72122 51.8379 8.799C52.4396 9.98799 53.2529 11.0574 54.2379 11.955C55.3306 12.7237 56.5547 13.286 57.8499 13.614C58.9941 13.8437 60.0575 14.3711 60.9328 15.143C61.4973 16.167 61.7835 17.321 61.7629 18.49C61.8051 19.8324 62.0911 21.1559 62.6069 22.396C63.2651 23.5527 64.1242 24.5828 65.1439 25.438C66.1147 26.173 66.8737 27.1518 67.3438 28.275C67.423 29.5038 67.1855 30.7323 66.6538 31.843C66.1172 33.1248 65.8027 34.4886 65.7238 35.876C65.8011 37.2645 66.1132 38.6297 66.6488 39.913ZM45.3929 30.654H40.1229V26.307C40.1662 25.1681 39.8913 24.0396 39.3291 23.0481C38.7668 22.0567 37.9395 21.2415 36.9399 20.694C36.3215 20.3431 35.6182 20.1701 34.9077 20.1941C34.1971 20.2181 33.5071 20.4382 32.9139 20.83C32.2299 21.33 31.1459 22.562 31.5759 25.176C31.5759 25.194 31.5819 25.212 31.5859 25.23C32.2719 28.558 31.0609 29.441 29.6569 30.464C29.2159 30.768 28.8033 31.111 28.4239 31.489C28.2777 31.4593 28.129 31.4442 27.9799 31.444H22.9529C22.3576 31.4445 21.7869 31.6812 21.366 32.1021C20.9451 32.523 20.7084 33.0938 20.7079 33.689V44.676C20.7084 45.2712 20.9451 45.842 21.366 46.2629C21.7869 46.6838 22.3576 46.9205 22.9529 46.921H27.9799C28.4365 46.9217 28.8822 46.782 29.2569 46.521C30.0122 47.0162 30.8966 47.2781 31.7999 47.274H43.6899C44.7143 47.264 45.7006 46.8839 46.4669 46.204C47.2332 45.524 47.7279 44.59 47.8599 43.574L49.3819 35.148C49.437 34.6037 49.3783 34.0539 49.2096 33.5335C49.0409 33.0131 48.7658 32.5334 48.4019 32.125C48.0411 31.6717 47.5838 31.3045 47.0633 31.05C46.5428 30.7956 45.9722 30.6603 45.3929 30.654ZM27.4929 44.194H23.4349V34.171H27.4979L27.4929 44.194ZM45.1709 43.085C45.1269 43.329 44.8479 44.546 43.6849 44.546H31.7999C30.9609 44.546 30.2249 44.006 30.2249 43.391V33.691C30.2249 33.445 30.6179 33.141 31.2639 32.67C32.7699 31.57 35.2879 29.737 34.2639 24.71C34.1079 23.73 34.2959 23.201 34.5269 23.032C34.7162 22.9487 34.9234 22.9141 35.1296 22.9316C35.3357 22.9491 35.5342 23.018 35.7069 23.132C36.2557 23.4532 36.7044 23.9207 37.0026 24.4823C37.3009 25.0439 37.4371 25.6774 37.3959 26.312V32.022C37.3959 32.3838 37.5396 32.7307 37.7954 32.9865C38.0512 33.2423 38.3981 33.386 38.7599 33.386H45.3939C45.5504 33.3905 45.7044 33.4272 45.8461 33.4938C45.9879 33.5603 46.1144 33.6554 46.2179 33.773C46.469 34.0197 46.6362 34.3391 46.6959 34.686L45.1709 43.085Z" fill="#FF3015"/>
</svg>
